HIERARCHY
ROOT reference
{
  OFFSET -65.3212 -1.93545 -120.338
  CHANNELS 6 Xposition Yposition Zposition Zrotation Xrotation Yrotation
  JOINT Hips
  {
    OFFSET 0 78.7191 0
    CHANNELS 6 Xposition Yposition Zposition Zrotation Xrotation Yrotation
    JOINT Chest
    {
      OFFSET 0 8.7983 -4.7612
      CHANNELS 6 Xposition Yposition Zposition Zrotation Xrotation Yrotation
      JOINT Chest2
      {
        OFFSET 0 8.0291 0.4195
        CHANNELS 6 Xposition Yposition Zposition Zrotation Xrotation Yrotation
        JOINT Chest3
        {
          OFFSET 0 9.9351 -2.2114
          CHANNELS 6 Xposition Yposition Zposition Zrotation Xrotation Yrotation
          JOINT Neck
          {
            OFFSET 0 22.3885 -0.4656
            CHANNELS 6 Xposition Yposition Zposition Zrotation Xrotation Yrotation
            JOINT Head
            {
              OFFSET -0.0001 12.643 3.4389
              CHANNELS 6 Xposition Yposition Zposition Zrotation Xrotation Yrotation
              End Site
              {
                OFFSET 0.0001 17.6655 0.5274
              }
            }
          }
          JOINT LeftCollar
          {
            OFFSET 2.2603 21.606 7.4023
            CHANNELS 6 Xposition Yposition Zposition Zrotation Xrotation Yrotation
            JOINT LeftShoulder
            {
              OFFSET 13.5163 -1.1332 -5.0146
              CHANNELS 6 Xposition Yposition Zposition Zrotation Xrotation Yrotation
              JOINT LeftElbow
              {
                OFFSET -0.0995 -28.05 -0.2431
                CHANNELS 6 Xposition Yposition Zposition Zrotation Xrotation Yrotation
                JOINT LeftWrist
                {
                  OFFSET 0.0679 -23.3996 -0.1402
                  CHANNELS 6 Xposition Yposition Zposition Zrotation Xrotation Yrotation
                  JOINT LeftFinger1
                  {
                    OFFSET 0.7932 -9.069 2.5189
                    CHANNELS 6 Xposition Yposition Zposition Zrotation Xrotation Yrotation
                    JOINT LeftFinger11
                    {
                      OFFSET -0.8272 -3.3923 0.5977
                      CHANNELS 6 Xposition Yposition Zposition Zrotation Xrotation Yrotation
                      JOINT LeftFinger12
                      {
                        OFFSET -0.5649 -2.3158 0.4082
                        CHANNELS 6 Xposition Yposition Zposition Zrotation Xrotation Yrotation
                        End Site
                        {
                          OFFSET -0.4919 -1.6479 0.2673
                        }
                      }
                    }
                  }
                  JOINT LeftFinger2
                  {
                    OFFSET 0.9159 -9.2044 0.2193
                    CHANNELS 6 Xposition Yposition Zposition Zrotation Xrotation Yrotation
                    JOINT LeftFinger21
                    {
                      OFFSET 0.0117 -4.1944 -0.0248
                      CHANNELS 6 Xposition Yposition Zposition Zrotation Xrotation Yrotation
                      JOINT LeftFinger22
                      {
                        OFFSET 0.0071 -2.3249 -0.0142
                        CHANNELS 6 Xposition Yposition Zposition Zrotation Xrotation Yrotation
                        End Site
                        {
                          OFFSET -0.1475 -2.0882 0.0028
                        }
                      }
                    }
                  }
                  JOINT LeftFinger3
                  {
                    OFFSET 0.6113 -8.7231 -2.0637
                    CHANNELS 6 Xposition Yposition Zposition Zrotation Xrotation Yrotation
                    JOINT LeftFinger31
                    {
                      OFFSET -0.1927 -3.8059 -0.2383
                      CHANNELS 6 Xposition Yposition Zposition Zrotation Xrotation Yrotation
                      JOINT LeftFinger32
                      {
                        OFFSET -0.1091 -2.1688 -0.1362
                        CHANNELS 6 Xposition Yposition Zposition Zrotation Xrotation Yrotation
                        End Site
                        {
                          OFFSET -0.2358 -1.9176 -0.0906
                        }
                      }
                    }
                  }
                  JOINT LeftFinger4
                  {
                    OFFSET -0.6151 -8.0947 -3.5641
                    CHANNELS 6 Xposition Yposition Zposition Zrotation Xrotation Yrotation
                    JOINT LeftFinger41
                    {
                      OFFSET -0.4882 -2.341 -0.6462
                      CHANNELS 6 Xposition Yposition Zposition Zrotation Xrotation Yrotation
                      JOINT LeftFinger42
                      {
                        OFFSET -0.3575 -1.7167 -0.4742
                        CHANNELS 6 Xposition Yposition Zposition Zrotation Xrotation Yrotation
                        End Site
                        {
                          OFFSET -0.4187 -1.5237 -0.3496
                        }
                      }
                    }
                  }
                  JOINT LeftFinger0
                  {
                    OFFSET -1.42 -1.8761 1.4223
                    CHANNELS 6 Xposition Yposition Zposition Zrotation Xrotation Yrotation
                    JOINT LeftFinger01
                    {
                      OFFSET -1.1471 -3.4929 2.6334
                      CHANNELS 6 Xposition Yposition Zposition Zrotation Xrotation Yrotation
                      JOINT LeftFinger02
                      {
                        OFFSET -0.823 -2.3 1.6571
                        CHANNELS 6 Xposition Yposition Zposition Zrotation Xrotation Yrotation
                        End Site
                        {
                          OFFSET -0.5822 -1.6914 1.1582
                        }
                      }
                    }
                  }
                }
              }
            }
          }
          JOINT RightCollar
          {
            OFFSET -2.2603 21.606 7.4023
            CHANNELS 6 Xposition Yposition Zposition Zrotation Xrotation Yrotation
            JOINT RightShoulder
            {
              OFFSET -13.5187 -1.1334 -5.0155
              CHANNELS 6 Xposition Yposition Zposition Zrotation Xrotation Yrotation
              JOINT RightElbow
              {
                OFFSET 0.0994 -28.0499 -0.2431
                CHANNELS 6 Xposition Yposition Zposition Zrotation Xrotation Yrotation
                JOINT RightWrist
                {
                  OFFSET -0.0679 -23.3996 -0.1402
                  CHANNELS 6 Xposition Yposition Zposition Zrotation Xrotation Yrotation
                  JOINT RightFinger1
                  {
                    OFFSET -0.7932 -9.0691 2.5189
                    CHANNELS 6 Xposition Yposition Zposition Zrotation Xrotation Yrotation
                    JOINT RightFinger11
                    {
                      OFFSET 0.8272 -3.3923 0.5977
                      CHANNELS 6 Xposition Yposition Zposition Zrotation Xrotation Yrotation
                      JOINT RightFinger12
                      {
                        OFFSET 0.565 -2.3158 0.4082
                        CHANNELS 6 Xposition Yposition Zposition Zrotation Xrotation Yrotation
                        End Site
                        {
                          OFFSET 0.4919 -1.6479 0.2673
                        }
                      }
                    }
                  }
                  JOINT RightFinger2
                  {
                    OFFSET -0.916 -9.2044 0.2193
                    CHANNELS 6 Xposition Yposition Zposition Zrotation Xrotation Yrotation
                    JOINT RightFinger21
                    {
                      OFFSET -0.0117 -4.1944 -0.0248
                      CHANNELS 6 Xposition Yposition Zposition Zrotation Xrotation Yrotation
                      JOINT RightFinger22
                      {
                        OFFSET -0.0071 -2.3249 -0.0142
                        CHANNELS 6 Xposition Yposition Zposition Zrotation Xrotation Yrotation
                        End Site
                        {
                          OFFSET 0.1475 -2.0882 0.0028
                        }
                      }
                    }
                  }
                  JOINT RightFinger3
                  {
                    OFFSET -0.6113 -8.7231 -2.0637
                    CHANNELS 6 Xposition Yposition Zposition Zrotation Xrotation Yrotation
                    JOINT RightFinger31
                    {
                      OFFSET 0.1927 -3.8059 -0.2383
                      CHANNELS 6 Xposition Yposition Zposition Zrotation Xrotation Yrotation
                      JOINT RightFinger32
                      {
                        OFFSET 0.1091 -2.1688 -0.1362
                        CHANNELS 6 Xposition Yposition Zposition Zrotation Xrotation Yrotation
                        End Site
                        {
                          OFFSET 0.2358 -1.9176 -0.0906
                        }
                      }
                    }
                  }
                  JOINT RightFinger4
                  {
                    OFFSET 0.6151 -8.0947 -3.564
                    CHANNELS 6 Xposition Yposition Zposition Zrotation Xrotation Yrotation
                    JOINT RightFinger41
                    {
                      OFFSET 0.4882 -2.341 -0.6462
                      CHANNELS 6 Xposition Yposition Zposition Zrotation Xrotation Yrotation
                      JOINT RightFinger42
                      {
                        OFFSET 0.3574 -1.7166 -0.4742
                        CHANNELS 6 Xposition Yposition Zposition Zrotation Xrotation Yrotation
                        End Site
                        {
                          OFFSET 0.4187 -1.5237 -0.3496
                        }
                      }
                    }
                  }
                  JOINT RightFinger0
                  {
                    OFFSET 1.4199 -1.8761 1.4221
                    CHANNELS 6 Xposition Yposition Zposition Zrotation Xrotation Yrotation
                    JOINT RightFinger01
                    {
                      OFFSET 1.1472 -3.4929 2.6336
                      CHANNELS 6 Xposition Yposition Zposition Zrotation Xrotation Yrotation
                      JOINT RightFinger02
                      {
                        OFFSET 0.8229 -2.3 1.6571
                        CHANNELS 6 Xposition Yposition Zposition Zrotation Xrotation Yrotation
                        End Site
                        {
                          OFFSET 0.5822 -1.6914 1.1582
                        }
                      }
                    }
                  }
                }
              }
            }
          }
        }
      }
    }
    JOINT RightHip
    {
      OFFSET -9.412 3.9771 -0.7758
      CHANNELS 6 Xposition Yposition Zposition Zrotation Xrotation Yrotation
      JOINT RightKnee
      {
        OFFSET -0.7531 -40.938 0
        CHANNELS 6 Xposition Yposition Zposition Zrotation Xrotation Yrotation
        JOINT RightAnkle
        {
          OFFSET 0 -40.1986 0
          CHANNELS 6 Xposition Yposition Zposition Zrotation Xrotation Yrotation
          JOINT RightToe
          {
            OFFSET 0 -4.4182 9.239
            CHANNELS 6 Xposition Yposition Zposition Zrotation Xrotation Yrotation
            End Site
            {
              OFFSET 0 0 6.1981
            }
          }
        }
      }
    }
    JOINT LeftHip
    {
      OFFSET 9.4119 3.9773 -0.7758
      CHANNELS 6 Xposition Yposition Zposition Zrotation Xrotation Yrotation
      JOINT LeftKnee
      {
        OFFSET 0.7532 -40.9383 0
        CHANNELS 6 Xposition Yposition Zposition Zrotation Xrotation Yrotation
        JOINT LeftAnkle
        {
          OFFSET 0 -40.1986 0
          CHANNELS 6 Xposition Yposition Zposition Zrotation Xrotation Yrotation
          JOINT LeftToe
          {
            OFFSET 0 -4.4182 9.239
            CHANNELS 6 Xposition Yposition Zposition Zrotation Xrotation Yrotation
            End Site
            {
              OFFSET 0 0 6.1981
            }
          }
        }
      }
    }
  }
}
MOTION
Frames:	4
Frame Time:	0.0333333
-24.9999 46.7125 -13.3896 0 0 -0 3.55271e-015 78.7191 0 3.50301 -16.689 1.21343 -3.55271e-015 8.7983 -4.7612 1.22281 0.690548 -1.34463 -1.77636e-015 8.0291 0.4195 2.46176 1.35203 -2.70398 2.66454e-015 9.9351 -2.2114 2.46176 1.35203 -2.70398 -2.22045e-016 22.3885 -0.4656 -8.68576 18.3677 18.3323 -0.0001 12.643 3.4389 -16.0345 3.14257 16.3503 2.2603 21.606 7.4023 23.9565 -0.951284 -21.7113 13.5163 -1.1332 -5.0146 33.0573 -41.713 18.1642 -0.0995 -28.05 -0.2431 138.204 -74.587 -176.496 0.0679 -23.3996 -0.1402 -27.1622 -22.749 89.8732 0.7932 -9.069 2.5189 4.52589 18.4701 -1.84851 -0.8272 -3.3923 0.5977 -46.4156 25.3081 8.48144 -0.5649 -2.3158 0.4082 -30.5729 18.0863 3.33225 0.9159 -9.2044 0.2193 -7.82517 13.0272 2.51932 0.0117 -4.1944 -0.0248 -42.7841 24.7472 5.54518 0.0071 -2.3249 -0.0142 -28.933 17.7322 1.72851 0.6113 -8.7231 -2.0637 -11.2793 14.3628 8.95553 -0.1927 -3.8059 -0.2383 -29.7797 20.1696 1.41888 -0.1091 -2.1688 -0.1362 -31.0209 20.923 1.70388 -0.6151 -8.0947 -3.5641 -8.89319 15.2784 16.6537 -0.4882 -2.341 -0.6462 -24.3568 16.7378 -0.473912 -0.3575 -1.7167 -0.4742 -23.2669 16.0169 -0.606831 -1.42 -1.8761 1.4223 -8.63085 -1.56165 -51.5333 -1.1471 -3.4929 2.6334 -1.51531 -0.520786 0.260851 -0.822999 -2.3 1.6571 8.53288 10.6974 -3.07889 -2.2603 21.606 7.4023 -18.2978 -0.0453777 10.8052 -13.5187 -1.1334 -5.0155 -11.7304 -45.5678 3.79656 0.0994 -28.0499 -0.2431 99.791 -70.9036 49.1994 -0.0679 -23.3996 -0.1402 27.2006 -30.5474 -49.8141 -0.7932 -9.0691 2.5189 -23.4442 8.24586 8.30959 0.8272 -3.3923 0.5977 38.2986 11.7585 -4.72782 0.565 -2.3158 0.4082 43.8839 13.0706 -6.01507 -0.916 -9.2044 0.2193 0.0407733 10.5962 4.74458 -0.0117 -4.1944 -0.0248 50.301 15.1722 -5.89752 -0.0071 -2.3249 -0.0142 42.6882 13.3652 -4.18992 -0.6113 -8.7231 -2.0637 14.7392 7.03138 -4.90133 0.1927 -3.8059 -0.2383 35.8192 13.3674 -2.26566 0.1091 -2.1688 -0.1362 37.3558 13.8713 -2.5435 0.6151 -8.0947 -3.564 22.3141 3.54694 -7.58503 0.4882 -2.341 -0.6462 29.8166 11.2128 -0.407434 0.3574 -1.7166 -0.4742 29.8091 11.2102 -0.4063 1.4199 -1.8761 1.4221 6.15725 0.690856 50.5084 1.1472 -3.4929 2.6336 -0.712401 1.62184 0.519293 0.8229 -2.3 1.6571 -7.01873 14.2243 5.45748 -9.412 3.9771 -0.7758 -3.11334 -13.5002 7.60268 -0.7531 -40.938 7.10543e-015 58.983 63.3794 -48.8154 -4.44089e-015 -40.1986 0 9.65441 -23.5157 20.6581 0 -4.4182 9.239 0.480478 3.30431 -0.203385 9.4119 3.9773 -0.7758 -13.6635 -2.8783 -7.07096 0.7532 -40.9383 7.10543e-015 0.354465 0.664637 1.09649 -7.10543e-015 -40.1986 0 -11.8719 -1.39295 16.0342 0 -4.4182 9.239 -1.33405 9.87474 0.115218 
-24.8411 46.6789 -13.0795 0 0 -0 3.55271e-015 78.7191 0 2.93371 -16.8538 -0.151947 0 8.7983 -4.7612 1.2474 0.819435 -1.32651 -1.77636e-015 8.0291 0.4195 2.5138 1.60956 -2.67095 0 9.9351 -2.2114 2.5138 1.60956 -2.67095 4.44089e-016 22.3885 -0.4656 -8.56272 17.1738 17.9687 -0.0001 12.643 3.4389 -16.0555 2.93785 17.0773 2.2603 21.606 7.4023 24.3054 -0.953485 -21.7037 13.5163 -1.1332 -5.0146 31.3189 -41.6851 17.192 -0.0995 -28.05 -0.2431 143.662 -73.0104 -168.421 0.0679 -23.3996 -0.1402 -26.8873 -19.2691 85.6395 0.7932 -9.069 2.5189 4.38039 18.3862 -1.85324 -0.8272 -3.3923 0.5977 -46.2116 25.2281 8.40353 -0.5649 -2.3158 0.4082 -30.6839 18.1436 3.36127 0.915901 -9.2044 0.2193 -7.7047 12.8256 2.49427 0.0117 -4.1944 -0.0248 -42.7841 24.7471 5.54521 0.0071 -2.3249 -0.0142 -28.558 17.5231 1.64952 0.6113 -8.7231 -2.0637 -11.1958 14.2243 8.8859 -0.1927 -3.8059 -0.2383 -29.4814 19.9869 1.35298 -0.1091 -2.1688 -0.1362 -30.7248 20.7445 1.63447 -0.6151 -8.0947 -3.5641 -8.47308 14.9697 16.4568 -0.4882 -2.341 -0.6462 -24.2359 16.658 -0.489347 -0.3575 -1.7167 -0.4742 -23.0003 15.8396 -0.637166 -1.42 -1.8761 1.4223 -8.68783 -1.83988 -51.5051 -1.1471 -3.4929 2.6334 -1.56918 -0.50548 0.265473 -0.823001 -2.3 1.6571 8.53287 10.6974 -3.07883 -2.2603 21.606 7.4023 -18.2189 -0.0444675 10.8052 -13.5187 -1.1334 -5.0155 -11.4019 -45.1951 3.69714 0.0994 -28.0499 -0.2431 104.034 -70.9228 51.3688 -0.0679 -23.3996 -0.1402 28.5642 -28.9257 -48.4173 -0.7932 -9.0691 2.5189 -23.0594 8.12893 8.21664 0.827201 -3.3923 0.5977 38.0777 11.7039 -4.67949 0.565 -2.3158 0.4082 43.5697 13.0005 -5.93943 -0.916 -9.2044 0.2193 0.122199 10.5317 4.69878 -0.0117 -4.1944 -0.0248 49.9151 15.0866 -5.8054 -0.0071 -2.3249 -0.0142 42.4223 13.2977 -4.13463 -0.6113 -8.7231 -2.0637 14.6774 6.9655 -4.82302 0.1927 -3.8059 -0.2383 35.551 13.2784 -2.21838 0.1091 -2.1688 -0.1362 37.1126 13.7921 -2.49847 0.6151 -8.0947 -3.564 22.1795 3.48029 -7.4715 0.4882 -2.341 -0.6462 29.6214 11.143 -0.385836 0.3574 -1.7166 -0.4742 29.6114 11.1394 -0.384401 1.4199 -1.8761 1.4221 5.90537 0.672806 50.1549 1.1472 -3.4929 2.6336 -0.718482 1.63548 0.523787 0.8229 -2.3 1.6571 -6.9729 14.1437 5.41981 -9.412 3.9771 -0.7758 -3.08077 -13.7484 7.46682 -0.7531 -40.938 0 62.0683 64.1129 -51.9063 8.88179e-016 -40.1986 0 9.77114 -24.1637 21.0235 3.55271e-015 -4.4182 9.239 0.462283 3.18088 -0.195268 9.4119 3.9773 -0.7758 -13.6327 -2.77071 -7.31817 0.7532 -40.9383 0 0.355472 0.686506 1.08706 -7.10543e-015 -40.1986 0 -12.1143 -1.45721 15.8274 0 -4.4182 9.239 -1.27434 9.44097 0.105198 
-24.772 46.6861 -12.8167 0 0 -0 3.55271e-015 78.7191 0 2.51288 -16.9858 -1.32718 0 8.7983 -4.7612 1.26278 0.991542 -1.2575 0 8.0291 0.4195 2.54757 1.9549 -2.53709 -1.77636e-015 9.9351 -2.2114 2.54757 1.9549 -2.53709 -8.88179e-016 22.3885 -0.4656 -8.17261 15.6927 17.1905 -0.0001 12.643 3.4389 -15.467 2.71244 17.4119 2.2603 21.606 7.4023 24.4371 -0.954155 -21.6981 13.5163 -1.1332 -5.0146 29.972 -41.7229 16.2866 -0.0995 -28.05 -0.2431 148.161 -71.2904 -161.319 0.0679 -23.3996 -0.1402 -26.4618 -16.1132 81.6108 0.7932 -9.069 2.5189 4.23501 18.3023 -1.85822 -0.8272 -3.3923 0.5977 -46.0079 25.1479 8.326 -0.5649 -2.3158 0.4082 -30.7948 18.2009 3.3904 0.9159 -9.2044 0.2193 -7.58437 12.6238 2.4697 0.0117 -4.1944 -0.0248 -42.7841 24.7471 5.54524 0.0071 -2.3249 -0.0142 -28.197 17.3209 1.57475 0.6113 -8.7231 -2.0637 -11.1126 14.0858 8.81651 -0.1927 -3.8059 -0.2383 -29.188 19.8066 1.28912 -0.1091 -2.1688 -0.1362 -30.4335 20.5682 1.56713 -0.6151 -8.0947 -3.5641 -8.05464 14.6596 16.2625 -0.4882 -2.341 -0.6462 -24.115 16.5783 -0.5046 -0.3575 -1.7167 -0.4742 -22.7339 15.6621 -0.66663 -1.42 -1.8761 1.4223 -8.74291 -2.1091 -51.4756 -1.1471 -3.4929 2.6334 -1.62308 -0.490175 0.269968 -0.823 -2.3 1.6571 8.53289 10.6974 -3.07896 -2.2603 21.606 7.4023 -18.0305 -0.0420454 10.785 -13.5187 -1.1334 -5.0155 -11.1393 -44.8 3.50215 0.0994 -28.0499 -0.2431 108.833 -70.7008 54.1148 -0.0679 -23.3996 -0.1402 29.586 -27.0272 -46.8148 -0.7932 -9.0691 2.5189 -22.6559 8.01399 8.11715 0.8272 -3.3923 0.5977 37.8048 11.6361 -4.62006 0.565 -2.3158 0.4082 43.2557 12.9299 -5.8642 -0.916 -9.2044 0.2193 0.203568 10.4672 4.65303 -0.0117 -4.1944 -0.0248 49.4979 14.9934 -5.70646 -0.0071 -2.3249 -0.0142 42.0992 13.2152 -4.06787 -0.6113 -8.7231 -2.0637 14.6157 6.89948 -4.74484 0.1927 -3.8059 -0.2383 35.2522 13.1789 -2.16618 0.1091 -2.1688 -0.1362 36.845 13.7047 -2.44931 0.6151 -8.0947 -3.564 22.0216 3.42115 -7.35537 0.4882 -2.341 -0.6462 29.4264 11.073 -0.364488 0.3574 -1.7166 -0.4742 29.4139 11.0686 -0.362778 1.4199 -1.8761 1.4221 5.64308 0.65894 49.7402 1.1472 -3.4929 2.6336 -0.724564 1.64921 0.528224 0.8229 -2.3 1.6571 -6.92717 14.0631 5.38224 -9.412 3.9771 -0.7758 -3.03996 -13.8236 7.51584 -0.7531 -40.938 7.10543e-015 64.2157 64.5564 -54.0154 0 -40.1986 1.42109e-014 9.93096 -24.5969 21.1577 3.55271e-015 -4.4182 9.239 0.473605 3.25759 -0.20031 9.4119 3.9773 -0.7758 -13.5492 -2.68489 -7.33268 0.7532 -40.9383 -7.10543e-015 0.358557 0.544241 1.08184 0 -40.1986 0 -12.0104 -1.58352 15.6097 -7.10543e-015 -4.4182 9.239 -1.22771 9.10147 0.097688 
-24.7531 46.8511 -12.5504 0 0 -0 3.55271e-015 78.7191 0 2.23119 -17.0305 -2.16144 -3.55271e-015 8.7983 -4.7612 1.28306 1.15843 -1.18205 -1.77636e-015 8.0291 0.4195 2.59053 2.28987 -2.39046 -3.55271e-015 9.9351 -2.2114 2.59053 2.28988 -2.39046 -8.88179e-016 22.3885 -0.4656 -7.58527 14.0765 16.1133 -0.0001 12.643 3.4389 -14.1237 2.36152 17.0514 2.2603 21.606 7.4023 24.2322 -0.961665 -21.7933 13.5163 -1.1332 -5.0146 28.1939 -41.751 15.01 -0.0995 -28.05 -0.2431 152.017 -69.2336 -154.682 0.0679 -23.3996 -0.1402 -26.1966 -12.6398 77.2583 0.7932 -9.069 2.5189 4.10076 18.2225 -1.86229 -0.8272 -3.3923 0.5977 -45.8044 25.0674 8.24885 -0.5649 -2.3158 0.4082 -30.9059 18.2581 3.41967 0.9159 -9.2044 0.2193 -7.46427 12.4221 2.44558 0.0117 -4.1944 -0.0248 -42.7841 24.7471 5.54524 0.0071 -2.3249 -0.0142 -27.8367 17.1183 1.50139 0.6113 -8.7231 -2.0637 -11.0295 13.9471 8.74739 -0.1927 -3.8059 -0.2383 -28.9046 19.6319 1.22829 -0.1091 -2.1688 -0.1362 -30.1485 20.3952 1.50212 -0.6151 -8.0947 -3.5641 -7.66126 14.3748 16.0816 -0.4882 -2.341 -0.6462 -24.0015 16.5034 -0.518719 -0.3575 -1.7167 -0.4742 -22.476 15.49 -0.69435 -1.42 -1.8761 1.4223 -8.79788 -2.37832 -51.4464 -1.1471 -3.4929 2.6334 -1.67444 -0.47562 0.274109 -0.823 -2.3 1.6571 8.53289 10.6973 -3.07894 -2.2603 21.606 7.4023 -17.6557 -0.0393315 10.8074 -13.5187 -1.1334 -5.0155 -11.0162 -44.084 3.12073 0.0994 -28.0499 -0.2431 113.937 -69.9267 57.2521 -0.0679 -23.3996 -0.1402 30.2709 -24.9937 -45 -0.7932 -9.0691 2.5189 -22.2526 7.8984 8.01853 0.8272 -3.3923 0.5977 37.5319 11.568 -4.561 0.565 -2.3158 0.4082 42.8832 12.8457 -5.77544 -0.916 -9.2044 0.2193 0.284191 10.3853 4.59934 -0.0117 -4.1944 -0.0248 49.0498 14.8924 -5.60094 -0.0071 -2.3249 -0.0142 41.7764 13.1325 -4.00165 -0.6113 -8.7231 -2.0637 14.5354 6.82725 -4.66641 0.1927 -3.8059 -0.2383 34.9536 13.0793 -2.11454 0.1091 -2.1688 -0.1362 36.5401 13.6047 -2.39377 0.6151 -8.0947 -3.564 21.8639 3.36168 -7.23947 0.4882 -2.341 -0.6462 29.1942 10.9897 -0.339367 0.3574 -1.7166 -0.4742 29.2164 10.9977 -0.341423 1.4199 -1.8761 1.4221 5.38082 0.649355 49.2956 1.1472 -3.4929 2.6336 -0.730656 1.66284 0.532714 0.8229 -2.3 1.6571 -6.88144 13.9826 5.34469 -9.412 3.9771 -0.7758 -3.18674 -13.8839 7.00867 -0.7531 -40.938 7.10543e-015 65.6064 64.825 -55.3557 -4.44089e-015 -40.1986 0 9.9727 -24.7503 20.8984 0 -4.4182 9.239 0.551199 3.78299 -0.235209 9.4119 3.9773 -0.7758 -13.4077 -2.61624 -7.12016 0.7532 -40.9383 7.10543e-015 0.36587 0.0684965 1.0703 -7.10543e-015 -40.1986 0 -11.7633 -2.15283 14.9543 0 -4.4182 9.239 -1.22113 9.0534 0.0966443 
